# xmcd
#
# Track frame offsets:
#	150
#	19507
#	33764
#	52021
#	66016
#	80043
#	96525
#	108652
#	130914
#	143836
#	158490
#	174075
#	191089
#
# Disc length: 2712 seconds
#
# Revision: 2
# Processed by: cddbd v1.5.2PL0 Copyright (c) Steve Scherf et al.
# Submitted via: EZCDAudioConverter 8.0.7.1
#
DISCID=aa0a960d
DTITLE=Dolly Parton - The Grass Is Blue (1999)
DYEAR=1999
DGENRE=Country
TTITLE0=Travelin' Prayer
TTITLE1=Cash On The Barrelhead
TTITLE2=A Few Old Memories
TTITLE3=I'm Gonna Sleep With One Eye Open
TTITLE4=Steady As The Rain
TTITLE5=I Still Miss Someone
TTITLE6=Endless Stream Of Tears
TTITLE7=Silver Dagger
TTITLE8=Train, Train
TTITLE9=I Wonder Where You Are Tonight
TTITLE10=Will He Be Waiting For Me
TTITLE11=The Grass Is Blue
TTITLE12=I Am Ready
EXTD=
EXTT0=
EXTT1=
EXTT2=
EXTT3=
EXTT4=
EXTT5=
EXTT6=
EXTT7=
EXTT8=
EXTT9=
EXTT10=
EXTT11=
EXTT12=
PLAYORDER=
